<svg id="Layer_1" data-name="Layer 1" xmlns="http://www.w3.org/2000/svg" xmlns:xlink="http://www.w3.org/1999/xlink" viewBox="0 0 1600 465"><defs><clipPath id="clip-path"><rect y="-20" width="1600" height="485" style="fill:none"/></clipPath></defs><title>box-back</title><rect x="155" y="5.5" width="1290" height="80" style="fill:#821213"/><path d="M1440,10.5v70H160v-70H1440m10-10H150v90H1450V.5Z"/><g style="clip-path:url(#clip-path)"><rect x="1447.6" y="6.27" width="77" height="496.9" transform="translate(-6.55 467.72) rotate(-17.85)" style="fill:#821213"/><path d="M1443.37,12.72,1592.6,476.19l-63.77,20.54L1379.59,33.25l63.78-20.53M1449.82.14,1367,26.8l155.36,482.51,82.81-26.66L1449.82.14Z"/><rect x="-135.12" y="216.72" width="496.9" height="77" transform="matrix(0.31, -0.95, 0.95, 0.31, -164.34, 284.87)" style="fill:#821213"/><path d="M156.07,13.22l63.78,20.54L70.6,497.22,6.82,476.69,156.07,13.22M149.62.64-5.76,483.14l82.81,26.67L232.43,27.3,149.62.64Z"/></g></svg>