<svg id="Layer_1" data-name="Layer 1" xmlns="http://www.w3.org/2000/svg" xmlns:xlink="http://www.w3.org/1999/xlink" viewBox="0 0 1600 465"><defs><clipPath id="clip-path"><rect y="-20" width="1600" height="485" style="fill:none"/></clipPath></defs><title>box-back</title><rect x="150.5" y="1" width="1299" height="89"/><path d="M1449,1.5v88H151V1.5H1449m1-1H150v90H1450V.5Z"/><g style="clip-path:url(#clip-path)"><rect x="1443.1" y="1.77" width="86" height="505.9" transform="matrix(0.95, -0.31, 0.31, 0.95, -6.55, 467.72)"/><path d="M1449.18,1.39,1603.93,482,1523,508.05,1368.27,27.45l80.91-26.06m.64-1.25L1367,26.8l155.36,482.51,82.81-26.66L1449.82.14Z"/><rect x="-139.62" y="212.22" width="505.9" height="86" transform="translate(-164.34 284.87) rotate(-72.15)"/><path d="M150.26,1.9,231.17,28,76.4,508.55-4.5,482.49,150.26,1.9M149.62.64-5.76,483.14l82.81,26.67L232.43,27.3,149.62.64Z"/></g></svg>