<svg id="Capa_1" data-name="Capa 1" xmlns="http://www.w3.org/2000/svg" viewBox="0 0 308.75 201.6"><title>canoe</title><path d="M58.83,133.9h99l.15-2.37-21.8-37.84c-10.28-1.89-19.1-5.32-25.3-9.76-2.34-1.67-6.31-3.33-9.19-3.33H15.93C1.57,80.6-4.84,91.12,4.14,102.32,16,117.07,34.73,133.9,58.83,133.9Z" style="fill:#fff"/><path d="M191.62,127.31a35,35,0,0,1,7.67,6.59h50.63c24.12,0,42.88-16.83,54.69-31.58,9-11.2,2.57-21.72-11.79-21.72H207.09c-2.88,0-6.85,1.66-9.19,3.33-7.64,5.46-19.23,9.38-32.68,10.79l14.86,25.78Z" style="fill:#fff"/><path d="M100.65,14l66.68,115.7-1,15a29.65,29.65,0,0,0,2,11.6c4.5,10.42,14.64,32.65,22.86,42,2.22,2.5,7.35,3.86,10.62,3.21,5.35-1.07,13.11-3.93,18.1-11.54,1.83-2.8,1.33-7.72-.38-10.59l-22.13-37a27.93,27.93,0,0,0-8.3-8.26l-13.32-7.85L108.5,9.43A7,7,0,1,0,94.85,7.05,7,7,0,0,0,100.65,14Z" style="fill:#fff"/></svg>