<svg id="Layer_1" data-name="Layer 1" xmlns="http://www.w3.org/2000/svg" viewBox="0 0 450.5 183.48"><title>chicago</title><path d="M79.25,26.11c-2.85.37-2.51,2.52-2.5,4.5,0,7.17,0,14.34,0,21.75h-3.5v31l-3.5.69v41.36H63.27l-1.63,7H56.71c-.27-1.59-.57-3.43-.93-5.55l-3-.6v-24.6H47V74c-2.09-4.38-5.39-5-9.74-4.15L33.5,73.65v28H27.75v38.13l-14.25.65v13.3L1,154.42v28H49.17" style="fill:none;stroke:#000;stroke-linecap:round;stroke-linejoin:round;stroke-width:2px"/><path d="M396.57,182.4c17.17,0,35.52.08,52.93.08V153.86H438.31c-3-3.72,2.3-10.21-5.56-11.86,0-8.05-.15-16.23.08-24.39.09-3-1.43-4.74-3.63-5.32-1.59-.43-3.85.46-5.36,1.46-.84.55-1,2.52-1,3.86-.08,8.17,0,16.34,0,24.75h-3c-.39,3.1-.74,5.95-1.12,9h-7.9c0-8.58,0-16.92,0-25.25,0-3.79-2-5.54-5.48-5.53-3.88,0-4.67,2.32-4.51,5.53.05,1,0,2,0,3v7H385V98.36H373.75v4h-16v26h-5v-5.45l-8-1.61V108.61h-6V90.86H327.51c-.47,10.36-1,21.06-1.47,32H312.73c-.36-3.44-.7-6.62-1.06-10H300.94a16.8,16.8,0,0,0-.67,2.75c-.24,3.49.18,6.83-2.28,10.17-1.35,1.85-.24,5.51-.24,8.83h-17v-51H259v36.25h-6.86l-2-4H234.74c-.34-2.92-.64-5.59-1-8.25h-8.68l-1.41,7.77-3.45,1.72v13.16l-5.5-.58V61.61c0-10.07,0-10.07-5.85-18.5-3.82,0-8-.16-12.15,0-3.94.19-8,5.66-8,10.46q0,32.49,0,65v6.75h-8c0-9.58-.39-18.94.12-28.25.42-7.73-3.94-12.57-8.62-17.5" style="fill:none;stroke:#000;stroke-linecap:round;stroke-linejoin:round;stroke-width:2px"/><path d="M81.75,25.61l6,.85v25.9h6.5V83.08l4.25,2.17v44.61h5.25c0-.92,0-1.59,0-2.25.65-11.17,1.16-22.35,2.14-33.49.18-2.05,2.31-3.92,3.78-6.26h10.23c6.25,6,1.79,14.21,3.93,21.6l4.16,1.4v31.5h3.75c0-7.25.05-14.25,0-21.25,0-3.3,3.44-8.06,7.28-8.16" style="fill:none;stroke:#000;stroke-linecap:round;stroke-linejoin:round;stroke-width:2px"/><path d="M172.25,65.61V79.77c-8.36,6.55-9.73,15.91-9.13,26.34s.14,20.66.12,31c0,1.83-.16,3.67-.24,5.5H148c-.23-1.94-.65-4-.7-6-.1-5-.05-10,0-15,0-3.44-3.72-8.66-7.6-8.56" style="fill:none;stroke:#000;stroke-linecap:round;stroke-linejoin:round;stroke-width:2px"/><path d="M81.25,1V25.61l-1.41.15" style="fill:none;stroke:#000;stroke-linecap:round;stroke-linejoin:round;stroke-width:2px"/><path d="M84.65,1c-.17,10.17-.23,13.94-.4,24.11" style="fill:none;stroke:#000;stroke-linecap:round;stroke-linejoin:round;stroke-width:2px"/><path d="M331.05,83.62c.17,5.5,0,1,.2,6.49" style="fill:none;stroke:#000;stroke-linecap:round;stroke-linejoin:round;stroke-width:2px"/><path d="M335.25,83.62v6.49" style="fill:none;stroke:#000;stroke-linecap:round;stroke-linejoin:round;stroke-width:2px"/><path d="M140.75,106.61" style="fill:none;stroke:#000;stroke-linecap:round;stroke-linejoin:round;stroke-width:2px"/><path d="M86.25,25.11" style="fill:none;stroke:#000;stroke-linecap:round;stroke-linejoin:round;stroke-width:2px"/><path d="M86.75,13.61" style="fill:none;stroke:#000;stroke-linecap:round;stroke-linejoin:round;stroke-width:2px"/></svg>