<svg id="Layer_1" data-name="Layer 1" xmlns="http://www.w3.org/2000/svg" viewBox="0 0 693.68 658.17"><title>hammer-solid</title><path d="M422.77,199.94" style="fill:#4c4d4d;stroke:#000;stroke-miterlimit:10;stroke-width:10px"/><path d="M417.36,201.22" style="fill:#4c4d4d;stroke:#000;stroke-miterlimit:10;stroke-width:10px"/><path d="M376.37,181.19" style="fill:#4c4d4d;stroke:#000;stroke-miterlimit:10;stroke-width:10px"/><path d="M684,198.94h0l-22.63-22.63a16,16,0,0,0-22.63,0l-11.31,11.31-28.9-28.9a63.73,63.73,0,0,0-16.35-61.61L536.92,51.86a160,160,0,0,0-226.28,0l90.51,45.25v18.75a64,64,0,0,0,18.75,45.25L469,210.25a63.73,63.73,0,0,0,61.61,16.35l28.9,28.9-11.31,11.31a16,16,0,0,0,0,22.63l22.63,22.63a16,16,0,0,0,22.63,0L684,221.56A16,16,0,0,0,684,198.94Z" style="fill:#4c4d4d;stroke:#000;stroke-miterlimit:10;stroke-width:10px"/><rect x="183.69" y="101.1" width="115.62" height="612.57" rx="39.2" transform="translate(346.63 -54.39) rotate(43.49)" style="fill:#472c1a;stroke:#000;stroke-miterlimit:10;stroke-width:10px"/></svg>