<svg id="Layer_1" data-name="Layer 1" xmlns="http://www.w3.org/2000/svg" viewBox="0 0 138.79 145.16"><defs><style>.cls-1{fill:none;}.cls-1,.cls-2,.cls-3,.cls-4{stroke:#000;stroke-miterlimit:10;}.cls-1,.cls-2{stroke-width:3px;}.cls-3{fill:#318a55;}.cls-4{fill:#d3e8c3;}</style></defs><title>longboard</title><line class="cls-1" x1="18.39" y1="108.35" x2="38.03" y2="126.88"/><rect class="cls-2" x="115.73" y="17.54" width="1" height="26" transform="translate(8.44 91.69) rotate(-46.67)"/><rect class="cls-3" x="91.54" y="2.33" width="17" height="25.71" rx="7.11" transform="translate(31.87 -66.95) rotate(43.33)"/><rect class="cls-3" x="123.55" y="32.52" width="17" height="25.71" rx="7.11" transform="translate(61.31 -80.68) rotate(43.33)"/><path class="cls-4" d="M61.9,122.65,28.44,91.09,89,26.92a24.91,24.91,0,0,0,13.12,3.94c21.49-22,21.49-22,27.95-15.9,7.64,7.2,7.64,7.2-13.46,29.56a26.13,26.13,0,0,0,5.85,14Z" transform="translate(-5.82 -2.44)"/><rect class="cls-3" x="9.57" y="92.6" width="17" height="24.79" rx="7.11" transform="translate(71.15 13.78) rotate(43.33)"/><rect class="cls-3" x="41.57" y="122.79" width="17" height="24.79" rx="7.11" transform="translate(100.6 0.05) rotate(43.33)"/><path class="cls-4" d="M121,60,61,123.57a25.09,25.09,0,0,0-13.08-4c-20.85,22.1-20.85,22.1-27.7,15.64-7.45-7-7.45-7,13.21-29.31A26.24,26.24,0,0,0,27.57,92l60-63.61" transform="translate(-5.82 -2.44)"/></svg>