<svg id="Layer_1" data-name="Layer 1" xmlns="http://www.w3.org/2000/svg" viewBox="0 0 360.73 600.51"><title>page-closed</title><polygon points="336.5 600.01 132 600.51 0.23 0.5 336.5 0.01 336.5 600.01" style="fill:gray"/><polygon points="3.46 3 358.23 2.5 358.23 597.51 158.16 598 3.46 3" style="fill:#fff"/><path d="M355.73,5V595l-195.64.48L6.69,5.49l349-.48m5-5L.23.5l156,600,204.5-.5V0Z"/><path d="M327.23,471.5c-79,7-141.51,57-171.09,129L.14.5H16.36Z" style="fill:gray"/><path d="M3.23,3H14.9L321.49,454c-36.68.51-71.13,16-102.41,46-24.55,23.58-46.58,56.31-62.51,92.75Z" style="fill:#fff"/><path d="M13.58,5.5,316.87,451.63a137,137,0,0,0-51.22,12.81c-16.86,7.82-33.11,19.18-48.31,33.78-23.31,22.39-44.35,52.92-60.14,87L6.46,5.51h7.12m2.65-5H0l156,600c29.24-71.12,87.8-144,167.37-144,.95,0,1.91,0,2.86,0L16.23.5Z"/></svg>