<svg id="Layer_1" data-name="Layer 1" xmlns="http://www.w3.org/2000/svg" viewBox="0 0 475.43 601.88"><title>page-open</title><polygon points="336.5 601.01 231.44 601.88 88.44 1.88 336.5 1.01 336.5 601.01" style="fill:gray"/><polygon points="258.34 595.43 91.73 4.36 358.23 3.51 358.23 598.42 258.34 595.43" style="fill:#fff"/><path d="M355.73,6V595.85L260.25,593,95,6.85,355.73,6m5-5-272.3.88,168,596L360.73,601V1Z"/><path d="M475.43,523.88c-79,7-189.41,2-219,74l-168-596h14Z" style="fill:gray"/><path d="M91.74,4.38h9.44L470.38,497.3h-2.23c-44.3,0-89.07,8.18-126.06,23-41.33,16.6-70.59,40.79-85.11,70.26Z" style="fill:#fff"/><path d="M99.93,6.88,465.39,494.81c-43.71.33-87.72,8.54-124.23,23.2-39.29,15.78-67.86,38.39-83.47,65.9L95,6.88h4.89m2.5-5h-14l168,596C285.14,528.05,388,499.79,468.15,499.8c2.45,0,4.88,0,7.28.08l-373-498Z"/></svg>