<svg id="Layer_1" data-name="Layer 1" xmlns="http://www.w3.org/2000/svg" viewBox="0 0 517 605"><title>page-curl-open-top</title><rect x="2.5" y="2.5" width="400" height="600" style="fill:none;stroke:#000;stroke-miterlimit:10;stroke-width:5px"/><path d="M517,525c-79,7-189.41,2-219,74L130,3h14Z" style="fill:gray"/><path d="M133.29,2.5h9.46L512,497.94h-1.06c-82.25,0-179.48,34.23-211.36,99.72Z" style="fill:#fdf6e4"/><path d="M141.49,5,507,495.47c-41.86.55-86.59,10-123.34,26.23-39.15,17.24-67.71,41-83.42,69.2L136.59,5h4.9M144,0H130L299,605c28.85-70.53,131.68-104.56,211.91-104.56,2,0,4.08,0,6.09.07L144,0Z"/></svg>