<svg id="Layer_1" data-name="Layer 1" xmlns="http://www.w3.org/2000/svg" viewBox="0 0 517 605.01"><title>page-curl-closed-top</title><path d="M368,476c-79,7-141.5,57-171.09,129L40.91,5H57.14Z" style="fill:gray"/><path d="M44,2.51H55.67L362.29,457.28c-36.7.51-71.15,16.12-102.45,46.42-24.54,23.77-46.57,56.77-62.5,93.51Z" style="fill:#fdf6e4"/><path d="M54.34,5,357.68,454.93a136.07,136.07,0,0,0-51.27,12.92c-16.86,7.89-33.12,19.35-48.31,34.06-23.3,22.57-44.34,53.35-60.12,87.74L47.23,5h7.11M57,0H40.77l156,605C226,533.3,284.57,459.76,364.15,459.77c.94,0,1.9,0,2.85,0L57,0Z"/><rect x="-0.5" y="2.5" width="400" height="600" style="fill:none;stroke:#000;stroke-miterlimit:10;stroke-width:5px"/></svg>