<svg id="Layer_1" data-name="Layer 1" xmlns="http://www.w3.org/2000/svg" viewBox="0 0 1118.64 937.37"><title>palette</title><path d="M487,932.37c-41,0-92.18-18.26-147.85-52.79-51.81-32.15-106-77.18-156.69-130.22C132.4,697,89.31,640.53,57.88,586.2,24.71,528.86,6.47,476.83,5.15,435.74,3.37,380.39,17,326.18,45.65,274.61c27.76-50,68.39-95.39,120.76-135S280.52,68.11,349.55,45C421.09,21.11,497.48,7.7,576.61,5.15c3.19-.1,6.3-.15,9.51-.15,55.12,0,113.53,15.09,173.61,44.86C813.83,76.67,869,115.7,919.26,162.73c96.66,90.44,169.07,203.51,189,295.08,7.61,35,7.23,65.17-1.1,89.74-8.78,25.88-26.39,45-52.34,56.84-65.63,29.94-131.15,36.79-194.51,43.41-58.34,6.1-113.44,11.86-158.9,36.24-50.86,27.28-83.58,74.44-103,148.42-17.37,66.29-54.84,99.91-111.38,99.91Z" transform="translate(0 0)" style="fill:#d6a97b"/><path d="M586.12,10c54.35,0,112,14.92,171.39,44.34,53.66,26.59,108.41,65.34,158.34,112,47.15,44.12,89.54,94.76,122.6,146.44,32.85,51.35,55.28,101.85,64.89,146.05,10.63,48.92,10.47,113.09-50.64,141-64.88,29.6-130,36.41-193,43-58.84,6.15-114.42,12-160.74,36.8a181.7,181.7,0,0,0-62.56,54.87c-18.5,25.57-32.53,57.2-42.87,96.69-8.73,33.32-22.78,58.32-41.75,74.29C534.56,920,512.76,927.37,487,927.37c-40.12,0-90.34-18-145.21-52-51.46-31.93-105.31-76.69-155.72-129.43C136.29,693.78,93.44,637.69,62.21,583.7,29.45,527.07,11.45,475.85,10.15,435.58,8.4,381.15,21.81,327.81,50,277c27.42-49.36,67.6-94.25,119.41-133.43,52-39.36,113.19-70.93,181.7-93.84,71.09-23.76,147-37.09,225.64-39.62,3.13-.1,6.19-.15,9.35-.15m0-10c-3.24,0-6.43.05-9.67.15C250.77,10.63-7.25,205.72.16,435.9,5.83,612.38,308.77,937.37,487,937.37c54.26,0,97-30.09,116.22-103.65C666.85,590.94,866,696,1056.85,608.94,1264.3,514.31,909.26,0,586.12,0Z" transform="translate(0 0)"/><path d="M468.89,860.68c-28.73,0-60.24-14.76-80.26-37.61-43.63-49.79-51.56-80.4-26.52-102.35,17.24-15.1,46.66-31.24,77.57-31.24,25.6,0,46.84,11.1,63.15,33,15,20.13,24.82,44.59,27,67.12,2.93,30.72-8.53,47.75-18.67,56.63C500.34,855.68,485.73,860.68,468.89,860.68Z" transform="translate(0 0)" style="fill:#fff"/><path d="M439.68,694.48c23.93,0,43.83,10.42,59.14,31,14.46,19.41,23.93,43,26,64.61,2.73,28.6-7.73,44.28-17,52.39-9.87,8.65-23.34,13.22-38.95,13.22-27.36,0-57.38-14.09-76.49-35.9C372.67,797.27,361.1,779.86,356,765c-5.9-17.12-3-29.61,9.44-40.5a130,130,0,0,1,33.29-20.83c13.86-6,28-9.17,41-9.17h0m0-10c-31.08,0-61.84,15.81-80.87,32.48-33.68,29.51-7.8,70.76,26.06,109.41,21.49,24.52,54.3,39.31,84,39.31,17.13,0,33.23-4.91,45.54-15.7,33.68-29.52,23.1-89.28-7.59-130.49-19.08-25.62-43.21-35-67.16-35Z" transform="translate(0 0)"/><path d="M190,555.32c-36.5,0-74.25-17.22-98.54-44.93C66.55,481.92,52,459.54,45.74,440,38,415.83,43.31,396.14,62,379.8c21.24-18.62,46.53-27.67,77.3-27.67,29.92,0,64.75,8.51,106.47,26,24.94,10.47,40.21,28.85,44.16,53.15,6.26,38.53-16.37,82.11-40.85,103.56C233.77,548.24,213.36,555.32,190,555.32Z" transform="translate(0 0)" style="fill:#91584f"/><path d="M139.27,347.13v10c29.24,0,63.43,8.39,104.53,25.63,23.59,9.91,37.44,26.51,41.15,49.34,2.64,16.21-.19,35.43-8,54.11-7.27,17.5-18.66,33.86-31.24,44.89-14.35,12.57-33.62,19.22-55.71,19.22a126.15,126.15,0,0,1-51.28-11.44,128,128,0,0,1-43.5-31.78c-24.48-28-38.71-49.76-44.76-68.65C43.34,416.1,48,398.66,65.25,383.56c20.3-17.78,44.5-26.43,74-26.43v-10m0,0c-31.66,0-58.32,9.38-80.6,28.91C14.5,414.74,46,466,87.74,513.69,113.43,543,153.06,560.32,190,560.32c23.16,0,45.29-6.8,62.3-21.7,44.16-38.7,72.51-132.68-4.67-165.08-41.39-17.37-77.31-26.41-108.41-26.41Z" transform="translate(0 0)"/><path d="M341.68,336.8c-29.25,0-63.36-17.63-105.57-44.11C207.82,275,188.89,247,186.71,219.74c-1.55-19.38,5.35-36.38,19.95-49.18,21.1-18.48,57-38.23,94.44-38.23,30.51,0,55.74,13.14,75,39.07,17.8,23.95,29.36,53.17,31.73,80.16,3.25,37-10.81,57.68-23.18,68.52C371.8,331.33,357.75,336.8,341.68,336.8Z" transform="translate(0 0)" style="fill:#6e827a"/><path d="M301.11,137.33c28.83,0,52.71,12.46,71,37,17.26,23.23,28.47,51.52,30.76,77.62,1.18,13.35,0,25.59-3.46,36.38a61.62,61.62,0,0,1-18,27.94c-11.88,10.41-24.86,15.48-39.66,15.48-28.06,0-61.43-17.33-102.92-43.34-27-16.92-45-43.4-47.06-69.12-1.42-17.74,4.89-33.3,18.26-45a161.36,161.36,0,0,1,40.88-25.66c17-7.41,34.42-11.33,50.27-11.33h0m0-10c-37.39,0-74.68,19.27-97.73,39.47-40.5,35.49-21.44,97.83,30.08,130.13,42.33,26.54,77.62,44.87,108.23,44.87,16.68,0,32-5.45,46.25-18,40.5-35.49,28.44-106.61-7.82-155.43-22.32-30-50.69-41.08-79-41.08Z" transform="translate(0 0)"/><path d="M554.85,241.25c-31.88,0-64.15-14.22-84.21-37.12-21.82-24.89-34.32-44.61-39.34-62.06-6.19-21.52-.6-39.52,17.1-55,23.27-20.39,51.14-30.73,82.85-30.73,26.79,0,55.54,7.53,85.44,22.37,21.64,10.75,34,27.26,36.89,49.09,2,15.49-1,32.87-8.79,50.26A125.21,125.21,0,0,1,614,220.42C598.42,234,578,241.25,554.85,241.25Z" transform="translate(0 0)" style="fill:#a55a3d"/><path d="M531.25,51.31v10c26,0,54,7.35,83.21,21.85,20.06,10,31.55,25.18,34.17,45.25,1.89,14.58-1,31-8.41,47.59a119.91,119.91,0,0,1-29.55,40.66c-14.62,12.81-33.93,19.59-55.82,19.59-30.49,0-61.31-13.57-80.45-35.41-21.31-24.32-33.48-43.44-38.3-60.15-5.68-19.74-.72-35.59,15.6-49.89C474,71.23,500.79,61.31,531.25,61.31v-10m0,0c-33.58,0-62.74,11.46-86.14,32-42,36.79-14.91,82.29,21.77,124.15,21.59,24.64,55.31,38.82,88,38.82,22.83,0,45.14-6.93,62.41-22.07,42-36.79,67.59-117.24,1.65-150-31.55-15.66-61-22.89-87.66-22.89Z" transform="translate(0 0)"/><path d="M869.37,344.24c-21.65,0-47.1-12.23-74-25.18-12.27-5.9-25-12-37.68-17.11-23.92-9.6-42.46-33.91-47.24-61.93-3.79-22.23,2.08-42,16.11-54.33,18.29-16,49.94-33.16,83.92-33.16,30.18,0,55.52,13.35,75.3,39.68,17.56,23.37,29.41,51.54,32.52,77.28,4.24,35.08-8.2,54.14-19.39,63.94C890.57,340.7,880.92,344.24,869.37,344.24Z" transform="translate(0 0)" style="fill:#585307"/><path d="M810.44,147.53v10c28.53,0,52.52,12.68,71.3,37.69,17,22.69,28.55,50,31.56,74.87,1.53,12.66.84,24.18-2,34.23a52.19,52.19,0,0,1-15.68,25.35c-7.45,6.53-15.77,9.57-26.2,9.57-20.51,0-45.46-12-71.88-24.69-12.33-5.93-25.09-12.06-38-17.24-11.21-4.5-21.33-12.55-29.26-23.27a83.25,83.25,0,0,1-14.91-34.86c-3.49-20.48,1.78-38.61,14.47-49.73,17.61-15.43,48-31.92,80.63-31.92v-10m0,0c-34,0-66.87,16.58-87.22,34.4-37,32.42-16.37,105,32.57,124.66,40.57,16.3,80.55,42.65,113.58,42.65,11.94,0,23-3.44,32.8-12.05,37-32.41,23.31-100.4-12.43-148-23-30.58-51.5-41.68-79.3-41.68Z" transform="translate(0 0)"/><path d="M1001.39,560.41c-32.1,0-67.37-16.57-89.85-42.23-27.76-31.67-55.15-73.86-48.79-97.28,2.09-7.68,7.74-13,17.29-16.13,7.3-2.43,14.62-5.32,22.36-8.37,21.25-8.39,43.21-17.06,67.22-17.06,24.25,0,47,9.14,69.69,27.92,20.42,16.94,32.84,44.68,33.24,74.19.35,26.11-8.55,49.06-24.41,63C1036.2,554.88,1020,560.41,1001.39,560.41Z" transform="translate(0 0)" style="fill:#5f879c"/><path d="M969.62,374.34v10c23,0,44.79,8.76,66.5,26.77,19.3,16,31.05,42.34,31.43,70.41.33,24.28-8.16,46.39-22.71,59.14-11,9.65-26,14.75-43.45,14.75-30.73,0-64.52-15.9-86.09-40.52-10.9-12.44-26.15-31.44-36.92-51.35-12.12-22.4-12.57-34.84-10.8-41.33,1-3.79,3.6-9.23,14-12.7,7.43-2.47,14.81-5.38,22.62-8.46,20.81-8.21,42.32-16.71,65.38-16.71v-10m0,0c-33.86,0-63.88,16.62-91.16,25.68-46.94,15.6-8.37,78.46,29.32,121.46,24,27.38,60.58,43.93,93.61,43.93,18.84,0,36.53-5.39,50-17.23,37.21-32.6,35.07-108.26-8.93-144.77-26.2-21.74-50.39-29.07-72.88-29.07Z" transform="translate(0 0)"/></svg>