<svg id="Layer_1" data-name="Layer 1" xmlns="http://www.w3.org/2000/svg" viewBox="0 0 656.38 655.45"><title>screwdriver</title><path d="M585.78,6.6l-128,96v62.06l-83,83a98.45,98.45,0,0,1,33.94,33.94l83-83h62.06l96-128Z" transform="translate(0)" style="fill:#4c4d4d;stroke:#000;stroke-miterlimit:10;stroke-width:10px"/><path d="M413.05,307.12l-14.6,14.6a23.79,23.79,0,0,1-4.79,26.77L118.05,624.09a23.81,23.81,0,0,1-26.77,4.8L76.69,643.48a23.79,23.79,0,0,1-33.64,0L12,612.39a23.79,23.79,0,0,1,0-33.64l14.59-14.59a23.79,23.79,0,0,1,4.79-26.77L307,261.78A23.78,23.78,0,0,1,333.73,257l14.59-14.59a23.79,23.79,0,0,1,33.64,0l31.09,31.08A23.8,23.8,0,0,1,413.05,307.12Z" transform="translate(0)" style="fill:#91584f;stroke:#000;stroke-miterlimit:10;stroke-width:10px"/></svg>