<svg id="Capa_1" data-name="Capa 1" xmlns="http://www.w3.org/2000/svg" viewBox="0 0 450 512"><title>skateboard</title><path d="M285,0a45,45,0,1,0,45,45A45.05,45.05,0,0,0,285,0Z" style="fill:#fff"/><path d="M445.61,396.39a15,15,0,0,0-21.21,0l-21.22,21.21a15.11,15.11,0,0,1-10.6,4.39H300V332a29.93,29.93,0,0,0-13.36-25l-68-45.31,48.17-97.3C277.08,143.87,261.11,120,240,120H150a29.84,29.84,0,0,0-16.64,5l-90,61A30,30,0,0,0,76.64,236l82.44-55h32.38l-38.3,76.58c-6.75,13.49-2.35,31,10.2,39.38L240,348.05V422H165a15,15,0,0,0,0,30h17.76A44.49,44.49,0,0,0,180,467a45,45,0,1,0,87.24-15.1h65.52A44.94,44.94,0,1,0,420,467a44.49,44.49,0,0,0-5.42-21,44.89,44.89,0,0,0,9.81-7.22l21.21-21.21A15,15,0,0,0,445.61,396.39ZM225,482a15,15,0,1,1,15-15A15,15,0,0,1,225,482Zm150,0a15,15,0,1,1,15-15A15,15,0,0,1,375,482Z" style="fill:#fff"/><path d="M146.72,321.92a59.37,59.37,0,0,1-16.71-17L101.46,362H30a30,30,0,0,0,0,60h90a29.86,29.86,0,0,0,26.84-16.58l31.27-62.57Z" style="fill:#fff"/><path d="M330,181H292.1l-30,60H330a30,30,0,0,0,0-60Z" style="fill:#fff"/></svg>