<svg id="Layer_1" data-name="Layer 1" xmlns="http://www.w3.org/2000/svg" viewBox="0 0 466.25 391.1"><title>toolbox2</title><path d="M444.85,234.69l-.12,1.05c1.81,2.07,1.47,4.48,1.12,6.9-1.53,3.57.39,7.7-1.79,11.17-.05,1.63-.09,3.25-.14,4.88v3.1c0,1.32-.08,2.63-.13,3.95s0,2.66,0,4a2.7,2.7,0,0,0-.13.85c-.29.05-.57.12-.86.19-1-1.09-.11-2.54-.46-3.26-1.38,10.83.26,22.17-1.09,33.44-.82,2.19-.91,4.56-1.52,6.79-1.17,4.26-4.36,5.1-7.19,1.67-1.87-2.26-3.26-2.44-5.23-.49-2.25,2.24-5.07,3-8.14,3.28-9.77,1-18.87,4.91-28.49,6.64-15,2.71-30.12,4.79-45.1,7.71a71.08,71.08,0,0,1-18.35,1.25c-5.41-.37-10.66,1.76-15.06,4.49-4.67,2.9-9.4,3.11-14.31,2.82a15.25,15.25,0,0,0-7.27.85,7.51,7.51,0,0,1-3.39.77c-6.59-.37-12.93.08-18.24,4.71a3.52,3.52,0,0,1-2.33.81c-6.89-.3-13.28,1.77-19.84,3.47-3.77,1-7.66,2-11.39,2.63-5.45,1-10.17,4.21-15,4.89-7.23,1-13.06,5.44-20.12,6.15-.66.06-1.33.47-2,.36-9.58-1.79-17.06,4.13-25.39,6.89-2.84.94-5.55,2.24-8.61,2.38-1.18.05-2.5.25-3.16,1.24-2.75,4.11-6.59,3.28-10.7,3.11-4.84-.19-9.8-.47-14.5,2.17-2.87,1.61-6.65-1-10,1-1.57.91-3.13,1.45-4.33,3-2.76,3.61-4.79,3.52-7.1-.43-.93-1.6-2.48-2.68-3.16-4.42-1.29-5.2-1.41-10.49-1.46-15.82-.24-23.55-2-47.06-2.15-70.62,0-5.58-.84-11.22-.8-16.86,0-2.87.62-5.3,3.68-6.36,13.14-2.05,26.23-4.48,39.38-6.55,7-1.78,14.33-2.26,21.49-3.42,5.63-.91,11.25-2,16.91-2.67a31.69,31.69,0,0,0,6.72-1.7c13.65-2.15,27.2-4.93,41-6.32,6.46-.33,12.74-1.82,19-3.25,4.69-1.08,9.49-1.39,14.21-2.11,14.21-2.16,28.39-4.56,42.58-6.87,10.27-1.68,20.59-3.12,30.79-5.17,17-3,34.1-5.35,51.07-8.51,6.35-.74,12.67-1.67,18.94-2.94,8-.81,15.7-3.17,23.71-3.78,2.85.21,6.05-1.88,8.49,1.22Z" transform="translate(-0.02 0.01)" style="fill:#c93634"/><path d="M453.51,45C438,27.51,409.69,28.45,389.86,43.53c-12.32,8.88-19.16,21.92-26.28,34.74-2.33,4.89-3.72,10-2.7,15.44,4.85,13.36,13.35,24.05,24.51,32.55,12.4,11.08,37.29,17.4,44.15-3,4.71-12.48,16.67-17.77,27-24.68C473.18,86.27,466,58.06,453.51,45ZM433.86,94.65a7.63,7.63,0,0,1-7.37-.18c-9,.11-16.15-5.76-21.33-12.55-10-7.93-8.88-21,3.16-25.88,10.55-4.48,22.45-.24,29.92,7.74C445.48,72.61,445.16,88.93,433.86,94.65Z" transform="translate(-0.02 0.01)" style="fill:#1e1006"/><path d="M2.53,194.84c1.06-.56,2.24-1,2.82-2.16,2.83-3.67,6.23-6.16,11.13-6.56,7.08-.58,10.64-4,11.87-11a28.93,28.93,0,0,0,.77-7.42c-.74-8.11,2.91-14.42,7.72-20.33,3.77-4.63,7.47-9.33,11.43-13.79a8.47,8.47,0,0,0,1.93-5.43c6.74-4.66,13.39-9.47,20.93-12.84a9.74,9.74,0,0,1,2.14-.88c4.21-.7,8.07-2.83,12.42-2.92a76.11,76.11,0,0,1,23.77-.26,27.14,27.14,0,0,0,5.48,1.76c4.32,1.2,9,1.08,13,3.57a2.35,2.35,0,0,1,1,2.49c-.81,4.28-3.55,6.82-7.49,8.28-3.45-.61-6.71.44-10,1.11a34.37,34.37,0,0,0-13.28.82c-7.47,1.79-9.68,7.33-5.71,13.83,2.18,3.57,5.12,6.47,7.91,9.52s5.33,6.45,3.66,11.11c-4.14,4.44-10.09,6.71-13.62,12s-8.26,9.89-9.93,16.34c-.61,2.34-2.59,3.29-4.38,4.45-3.43,1.14-6.49,0-9.52-1.51-7.09-3.6-12.74-2.65-18.31,3-4.36,2.94-3.79,7.63-4.09,11.94-.08,1.26.45,2.58,0,3.88C40.8,219,37,223.84,31.47,227c-14.08.17-23-8-30-18.93C-1.57,203.43.87,199.13,2.53,194.84Z" transform="translate(-0.02 0.01)" style="fill:#655c51"/><path d="M282.33,52.85l52.16-3c1.48-.08,3,0,4.46.06,2.08,1.33,5.81-.7,6.62,2.1s-3,3.48-4.32,5.45-4.25,2.69-3.05,6.1c.66,1.89-1.47,2.28-2.92,2.52-3.24.55-6.5,1-9.78,1.42-.13,2.43,1.63,3.45,2.67,4.83,2.09,2.77,1.18,4.18-1.91,4.81a45,45,0,0,1-9.88,1.1c-3.17,0-6.28.31-9.07,2.18,4.33,1.48,8.76,2.22,13.07,3.43,1.22.35,2.93.3,2.89,2.11,0,1.65-1.57,2-2.85,2.29-7,1.33-14.11,1.88-21.16,2.88-2.69.39-5.42.75-7.62.24.38-.28,1.09-.08,1.6,1-.85,1.83-2.6,1.74-4.18,1.94-5,.64-10,1.39-14.93,2.47-15.35,1.09-30.52,3.88-45.9,4.61-7.84.74-15.62,2.7-23.58,1.36-2.46-1.23-2.88-3.57-2.77-5.89.53-10.57-2.5-20.92-1.83-31.5.12-1.93-.54-4,1.21-5.55,4.18-.39,8.37-.82,12.56-1.15,1.22-.09,2.24-.26,2.54-1.66,13.56-2,27.17-3.55,40.91-3.41,1.38.68,2.94,2.55,3.71-.6C268.09,52.38,275.19,49.83,282.33,52.85Z" transform="translate(-0.02 0.01)" style="fill:#a56e3e"/><path d="M105.51,70.84c12.62-.59,25-3,37.58-4.34,9.74-1,19.47-2.18,29.2-3.27,7.66.57,7.62.58,9.24,8.33,1.85,8.88,3.81,17.74,5.32,26.69.36,2.09,1,4.26-.72,6.13-7.42,3.08-15.38,2-23.07,3-12.84,1.57-25.84,1.32-38.66,3.24-11.89.58-23.81.28-35.69,1-3.58-2.19-1.31-3,.9-3.9,1-.4,2.66-.22,2.47-1.84-.17-1.37-1.65-1.43-2.75-1.71-1.76-.46-3.81-.6-3.25-3.33.27-1.35-.7-1.67-1.69-2-2.52-.75-4.65-1.88-4.68-5,0-.5-.18-1.19-.59-1.29-5.29-1.31-5.11-5.76-5.54-9.76-.38-3.53-3-3.79-5.61-4.21a1.88,1.88,0,0,1-1-2.47,1.84,1.84,0,0,1,.76-.87c7.77-2.86,16-2.67,24-3.77C96.31,70.91,100.85,69,105.51,70.84Z" transform="translate(-0.02 0.01)" style="fill:#a56e3e"/><path d="M362,93.86A78.25,78.25,0,0,0,376,116c8.18,9,18,15.82,29.66,19.39,3.23,1,6.91.5,10.38.68-2.74,2.26-6.57-.94-9.2,1.86a26.05,26.05,0,0,0-4.13,9c-2.08,8.13-7.57,12.14-15.5,13.45-1.47.24-2.93.6-4.39.91a12.3,12.3,0,0,0-9.54,8.5c-3.31,1.87-2.88-2.27-4.68-2.94-1.27.9-.42,2.51-1.19,3.56s-1.78,2.36-3.06.67-1.91-1-3.21-.1c-3.8,2.6-6.54,1.83-8-2.5-.86-2.65-2-3.5-4.66-2.84.42,3,4.82,2.34,4.78,5.28-.05,3.11-4.15,2.19-5,4.1-1.75,4-3.28,4.78-5.83.72-.68-1.09-2-1-3.21-.91a15.57,15.57,0,0,1-3.48,0c-5.3-.91-8.5-.19-12.77,2.9-5,3.57-5,3.58-7.61-1.81a4.8,4.8,0,0,0-2.36-2.4,34.68,34.68,0,0,1-2.49,7.49c-1.93,3.54-5.15,3.48-7.36,0,1.39-5,4.89-8.85,7-13.42,4.85-7.63,9.77-15.23,14.29-23.07,7-8.86,12.27-18.86,18.38-28.31,4.94-7.66,9.7-15.43,14.88-22.93.71-1,1.27-2.64,2.85-2.32S360.85,93.17,362,93.86Z" transform="translate(-0.02 0.01)" style="fill:#655c51"/><path d="M23.47,69.92c-4.23-8.24-8.8-16.33-12.62-24.76A19.09,19.09,0,0,1,18.46,20.8Q35.44,10.93,53,2C61.06-2.11,71.11.19,75.34,7.9a378.46,378.46,0,0,1,20,42.1c-1.94,1.33-3.07-.43-4.23-1.31-2.2-1.66-4.39-2.06-6.85-.82-3.74.82-6.67,3.81-10.66,4-3.23-.62-4.77-4.07-8.35-4.84-.54,4-1.59,7.87-6.08,8.91-1.9.44-1.42-2.34-3.41-3.39-2.55,5.6-8,8.55-12.18,12.8-1.48,1.49-2.84,2.69-5,2.73a7.78,7.78,0,0,0-4.51,1.86C30.51,72.51,27,72.17,23.47,69.92Z" transform="translate(-0.02 0.01)" style="fill:#645c53"/><path d="M186.18,104c-1.4-12.81-5-25.21-7.19-37.86-.66-3.73-4.8-1.1-6.7-2.89,5.38.29,6.36-2.22,4.6-6.86-1.65-4.36.74-8.46,1.25-12.68a2,2,0,0,1,1.2-1.38c5-1.18,10-2.27,15.07-3.33,2.07-.44,2.24,1.44,3.07,2.6,4,5.53,3.37,12,3.78,18.23-.49,13.18,2.34,26.2,2,39.38a8.92,8.92,0,0,0,.89,2.79c2.74,8.58,3,17.58,4.26,26.39,1.8,12.6,4.13,25.13,5.25,37.83a7,7,0,0,0,.86,2.31c1.19,6.39.82,13,2.15,19.34-.36,2.09-1.94,2.93-3.72,3.33-3.62.8-7,2.5-10.85,2.4-6.33-.69-5.56-6.22-7-10.26-3.21-24.14-5-48.45-9.07-72.49C185.67,108.57,185.18,106.24,186.18,104Z" transform="translate(-0.02 0.01)" style="fill:#696055"/><path d="M372.85,169.83c.57-5.57,3.36-8.53,9.41-9.87,1.93-.43,3.9-.7,5.84-1.08,6.47-1.26,11.1-4.39,13.09-11.2,1-3.54,1-8.12,5.66-9.72l3.06,11.85c.62,1.37.57,2.47-1.32,1.87-1.47-.47-2.28-1.83-2.88-3.32.37,5.2,2,10.61-3.56,14.23a.64.64,0,0,0-.27.41c-.65,7.07-3.26,14.14.35,21.19,2.65,5.2,5.6,9.4,12,11,4.52,1.12,7.47,5.86,11.62,8.34,2.83,1.68,5.66,2.74,8.95,1.69,1.5-.47,3.16-1.77,4.42.21,1.09,1.73.56,3.52-.47,5.16a19.28,19.28,0,0,1-2,2.23l-24,4c.21-5.55-2.42-10.48-3.48-15.74-4-3.27-8.64-1.34-13-1.85H383.45c-8.51.08-13.94-5.64-13.46-14.07a16.57,16.57,0,0,0,1-8.78A7.79,7.79,0,0,1,372.85,169.83Z" transform="translate(-0.02 0.01)" style="fill:#661611"/><path d="M436.8,212.8c0-1-.07-2.05.76-2.78,1.46-1.31,1.88-3.14.7-4.4s-2.06,1-3.18,1.26a11.65,11.65,0,0,1-8.45-1.24c-2.32-1.22-4.85-2.49-6.52-4.41a21.54,21.54,0,0,0-14.06-7.43c-.85-.11-2.06-.3-1.92-1.15.75-4.44-2.61-6.82-4.59-9.93a5.23,5.23,0,0,1-.63-3.31,118.88,118.88,0,0,0,.95-15.21c0-1.23.26-2.57,1.33-3,5.45-2.43,3.79-7,3.15-11-.34-2.13-.19-3.48,1.88-4.79,1.08,1.65.37,4,2.28,5.18,1.39.89,1.2,0,1.41-.76,4.53,10.73,9.3,21.33,18.45,29.11,2.77,2.35,6.26,4,8.58,6.7,6.72,7.8,9,17.12,7.92,27.32C442.19,211.72,439.48,213.37,436.8,212.8Z" transform="translate(-0.02 0.01)" style="fill:#821213"/><path d="M257.27,53.59c-4.49,2.84-9.66,1.34-14.46,1.95-7.51,1-15.15,1.16-22.67,2.37a4.91,4.91,0,0,1-3.78-.91c-2.31-20.79,11.49-41.24,37.13-44.87,2.09-.29,4.53-.59,6,1.43,1.61,2.19.6,4.64-.57,6.56-3,5-6.4,9.69-9.54,14.58-3.6,5.59-3.34,7.38,1.33,12.1C252.93,49,255.09,51.32,257.27,53.59Z" transform="translate(-0.02 0.01)" style="fill:#5b544b"/><path d="M23.47,69.92c2.19-2.65,2.25.9,3.45,1.18,1.47-1.06-.91-2.33.15-3.45,1.88.47,2.21,2.21,2.75,3.74,3.24-2,5.54-5.32,9.9-4.57,2.42.42,2.15-2.68,3.52-3.56C48,60.2,52.3,56.74,54.76,51.44a1.66,1.66,0,0,1,2-1.06c2.3.79,1.14,3.2,2,4.69,2.75-1.8,5.31-3.46,4.81-7.54-.21-1.65.1-4,3.41-1.49,2.15,1.61,3.84,4,6.52,5,2,3.27,4.27,2.94,6.91.73,1.56-1.29,2.52-3,3.8-4.5,2.18-2.37,4.19-2.12,6.68-.17,1.34,1,2.44,2.72,4.41,2.9l1.13,2c-.21,2.65-2.09,4-4.12,5.19-6.21,3.75-13.59,3-20.29,5.07-3.23,1-7.4-.06-11.11.91a11.59,11.59,0,0,0-3.62,1.49c-5,1.39-5.5,6.25-7.51,9.93-2.06,3.22-.26,7-1.6,10.35-3.12,5.87-3.16,11.86-.68,18,1.9,3.67.4,8.15,2.8,11.71.5,2.36,1,4.73-1.13,6.63Q35.74,95.83,23.47,69.92Z" transform="translate(-0.02 0.01)" style="fill:#5a5048"/><path d="M293.21,92l-2.91-.29-.08-.59,32.29-4.4c-6.38-2.09-12.33-4.76-20-5.17,4.72-3,8.51-5,13-4.61S324,76,328.8,75.5l-4.64-5.89c-.68-.87-2.12-1.48-1.63-2.81s2-.74,3.08-.86c3.89-.46,7.79-.87,12.89-1.43-4.21-2.28-4.23-3.81-.74-5.63,2.86-1.49,4.15-5.06,7.32-6.35C343.63,50,340.5,52,339,50l19-1c4.57.41,9.15-.33,13.72,0,1.15.08,2.6-.11,3,1.21s-1.1,2-2.05,2.32c-4.88,1.74-7.62,5.67-11.11,9.13-3.14,3.11-5.63,7.44-10.12,9.32-3.59,1.51-4.9,5.71-8.45,7.44-1.28.62-.64,2,.2,3,1,1.18,1.83,2.4.88,4-5.22,3.51-11.44,2.56-17.15,3.93-9,1-18,2.62-27,3.62C297.55,93.2,295.22,93.79,293.21,92Z" transform="translate(-0.02 0.01)" style="fill:#7b4a1f"/><path d="M49.19,121.15l.13-7.22c-.42-4.51,2.88-3.08,5-2.86,4.85.52,5.56.19,5.67-4.58.15-6.29.23-12.59,0-18.87-.24-5.5-1.82-6.76-7.16-6.46-4.14.22-5.14-1.92-3.35-7.19.83-6.7,2.93-9.36,8-10.17,2.08-1.29,3.89-.91,4.94,1.23,1.8,3.65,4.41,6.93,5.09,11.09l-.1,1.57c4.7,11.58,6.06,23.64,5.16,36a4.05,4.05,0,0,1-1.16,2.17c-.56,2.89-3.52,2.62-5.31,3.65-3.37,1.93-7.16,3.19-9.59,6.41-1.68,2.22-4,1.83-6.25,2.22C49.86,125.82,49.53,123.49,49.19,121.15Z" transform="translate(-0.02 0.01)" style="fill:#be3639"/><path d="M343.89,85c-.16-.63-.12-1.46-.51-1.86-4.26-4.4-4.28-4.39.92-7.39,1.3-.75,2.62-1.35,2.71-3.2.08-1.5,1.06-2.29,2.54-2.61,3-.65,6.17-1,4.86-5.59-.38-1.33,1.11-1.52,2-1.39,3,.44,4.29-1,5.41-3.69,1.69-4,3.07-4.68,12.08-9-5.4-1.23-10.89,1-16-1.29l2.69-.14c4.52-1.35,9.4.94,13.8-1.43,4.42-1.24,9.36-.68,13.17-4.09.78-.7,2.19-.32,3.12.55-11.54,9.11-18.63,21.62-25.88,34-.36.56,0-.19-.25.42-1.77,5.16-5.36,7.52-10.78,7.12-3.14-.61-6.25,1.37-9.39.09Z" transform="translate(-0.02 0.01)" style="fill:#603209"/><path d="M67.45,76.12c-3.12-2.37-4.08-6.19-5.67-9.42a4.45,4.45,0,0,0-4.36-2.9,12.92,12.92,0,0,1,11-3c3.67.6,6.44.32,9.08-2a2.6,2.6,0,0,1,2.71-.42c6.92,1.71,11.51-2.52,16.2-6.46l9.06,18.92Z" transform="translate(-0.02 0.01)" style="fill:#564d45"/><path d="M282.33,52.85c-5.21.33-10.46-.3-15.64,1A7.47,7.47,0,0,1,261,53c-5.64-5.07-5.71-5.12-1.31-11.18,2.82-3.88,5.16-8.13,8.7-11.46,5.79-5.45,9.92-4.31,12.27,3.22C282.61,39.89,282,46.4,282.33,52.85Z" transform="translate(-0.02 0.01)" style="fill:#584f46"/><path d="M390.74,43.9c-1,.12-2.42-.12-2.84.42-3.45,4.56-8.35,3.6-13,3.68-.8-.38-.4-1.43-1-1.91,5.13-11.62,10.85-13.33,22.79-6.81C395.25,41.55,392.78,42.44,390.74,43.9Z" transform="translate(-0.02 0.01)" style="fill:#821213"/><path d="M373.87,46.09c.89.35,1,1.13,1,1.91-4.64,2-9.49.69-14.25.87,3-1.06,6.12-.58,9.18-.78C371.52,48,373.08,47.89,373.87,46.09Z" transform="translate(-0.02 0.01)" style="fill:#7e5739"/><path d="M47.34,197.73c4-6.36,13.14-8.46,19.17-4.26a14.49,14.49,0,0,0,9.9,2.28c3.8-1.8,4.26,1.7,5.74,3.6,2.78,8.2,5.26,16.54,9.67,24.09,4,7,9.9,12.92,12.48,20.81a72,72,0,0,1,3.23,12.69c.41,39.14,2.38,78.23,3.67,117.33-.3,1.32-1.19,2.32-2.44,1.6-5.94-3.41-12.59-6.16-14.5-13.82a13.55,13.55,0,0,0-5-7.8c-1.08-1.29-1.25-3.09-2.4-4.35a18.46,18.46,0,0,1-1-1.86c-2.86-2.1-6.06-1-9.1-.86-2.12.08-3.8,0-5.12-2q-7.19-11.16-15-21.89c-2.84-5.85-5.6-6.55-11.77-3-.52,1.24-.21,3.13-2,3.43s-1.56-1.69-2.42-2.51a1.43,1.43,0,0,1-1-.59q-1.56-3.48-3.1-7c-.38-2.63-.76-5.26-1.13-7.91-.06-2.41.57-4.89-.65-7.2-.06-1.27-.12-2.54-.19-3.8,0-.7-.09-1.39-.14-2.08,0-1.66,0-3.32-.07-5-.43-2,0-4.15-.53-6.18-.55-8.59.51-17.26-1.2-25.8l-.15-2v-2.91c-.13-3,1-6.13-.74-9a2.24,2.24,0,0,1-.25-.62v-6.51l.1-7.61c.16-.79.16-2.18.51-2.28,5.86-1.54,7.14-7.84,11.47-10.93,1.22-1.17,1-2.62.91-4.1C44,205.36,44.57,201.25,47.34,197.73Z" transform="translate(-0.02 0.01)" style="fill:#c23534"/><path d="M440.78,301.69c.18-12.58-.65-25.19,2-37.78v6.86q.06,5.48.11,11c-.1.67-.21,1.35-.31,2-1,5.33.36,10.77-.74,16.09.05,2.95.11,5.89.16,8.84l-.3,4a7.34,7.34,0,0,1-2.83,7.89c-1,.5-2.33.62-3.08,1.55-3.91,4.85-9.78,5.25-15.16,6.55-11,2.68-22.22,4.35-33.17,7.59a127,127,0,0,1-24.26,4.93c-6.86.62-13.32,3.53-20.08,5-2.43.51-5,1.71-7.26,1.3-5.86-1.07-10.55,4-16.31,2.55-.09.68,1.11,1.21.22,2a8.1,8.1,0,0,1-4.81,1c-7.54-.6-14.55,2.08-21.8,3.23a215.27,215.27,0,0,0-21.61,4.65,16.63,16.63,0,0,0-4.67,1.43c-8.45,1.15-16.93,2.11-25.09,4.73a97.08,97.08,0,0,1-19.68,4c-4.86.51-9.5,3.25-14.58,1.36-1.88-1.38-6.07-1.18-5.45-4,.74-3.38,4.43-1.48,6.9-1.5a6.7,6.7,0,0,0,2.94-.42c8.42-4.12,17.94-4.94,26.46-8.43a84.88,84.88,0,0,1,27.84-6.19c5.49-.32,10.43-4.23,16.25-4.14,10.84.17,20.93-4.74,31.8-4.65,4.61,0,8.55-2.9,13.19-3.76,11.56-2.14,22.92-5.46,34.46-7.83s23.3-4.88,35.13-6.26a13.34,13.34,0,0,0,5.68-1.69c2.62-1.64,5.66-1.66,8.48-2.45,8.07-2.25,16-5,24.21-6.83,3.13-.68,3.88-4.29,4.3-7.31C440,305.19,439.6,303.3,440.78,301.69Z" transform="translate(-0.02 0.01)" style="fill:#821213"/><path d="M441.87,299.86c.21-5.36-1-10.79.74-16.09l.33,4.9v2.07c0,1.32,0,2.64-.05,4-.06,1.62-.11,3.24-.16,4.86Z" transform="translate(-0.02 0.01)" style="fill:#821213"/><path d="M143.25,387.59A82.53,82.53,0,0,0,126.87,391c-2.13.64-10.53-2.48-11.27-4.67-.63-1.84-1.33-2.92-3.33-2.83a6.23,6.23,0,0,1,.1-7.91c2.14-.22,2.89.88,3.13,2.88a3.1,3.1,0,0,0,2.58,2.72c1.71.25,2.44-1.34,2.59-2.51.48-3.92,3.27-3.2,5.79-3.26,2.15-.06,3.78-4.05,6.4-.81a1.52,1.52,0,0,0,2.1.53l.11-.07c5.93-5.07,12.73-3.07,19.38-2.5,1.46.14,3.61.45,4.05-1.08,1.2-4.16,4.42-3.27,7.4-4a78.48,78.48,0,0,0,17.82-6.86c2.93-1.58,5.45-2.63,9.18-2.29,5.46.51,11.36.83,16-4,1.41-1.46,4.76-1.8,7.06-1.48,3.79.52,6.39-.92,8.84-3.34,2-2,4.11-3.47,7-1.52a2.75,2.75,0,0,0,3.66-.56c2.85-3.16,6.49-2.84,10.13-2.74a10.16,10.16,0,0,0,5.65-1.35c3.28-1.89,6.77-3.17,10.84-1.9a8.41,8.41,0,0,0,8.36-2.17c4.26-4.7,9.43-3.76,14.6-3.7.66,0,1.43.3,2,.06A23.06,23.06,0,0,1,301,333.91c7.13,1.41,11.8-4.7,18.15-5.89,3.65-.68,7-1.68,10.94-1.55,8.21.29,16.35-1.43,24.48-3,13.81-2.62,27.81-4.23,41.6-7,4.33-.86,8.49-2.88,13-3.6,1.89-.3,3.81-.89,5.73-1.34,4.64-1.07,10-.27,13.3-5.27,1.21-1.81,3.79-2.34,4.74,1.1.44,1.58,1,3.47,3.16,3.16s2.6-2.32,2.71-4.17-.08-3.74,2-4.68v2c0,10.74-1.87,13-12.27,13.91-4.2.37-8.21.84-11.43,3.9a2.2,2.2,0,0,1-1.34.64c-5.91-.1-11,2.87-16.49,4.21-9.84,2.4-20,3.57-30,5.51-12,2.33-23.94,5.07-35.84,7.87-5.21,1.22-11.08.43-15.55,4.39a1.85,1.85,0,0,1-1.39.43c-10.28-2.14-19.33,4.58-29.71,3.89-4.92-.32-11.3.22-16.12,3.85a5.57,5.57,0,0,1-4.21,1.32c-7.82-1.36-15.51.84-22.26,3.53-5.34,2.12-11,3.17-16.23,5.43s-11.2,2.24-16.15,5.8c-2.51,1.82-5.94-1.81-9.24-.1.7,2.42,4.73.23,4.61,3.42,1,2.56-1,2.86-2.55,3.11-11,1.74-21.42,6.91-32.9,6.34C162.91,386.19,152.65,385,143.25,387.59Z" transform="translate(-0.02 0.01)" style="fill:#c93634"/><path d="M342.94,227.83a6.19,6.19,0,0,1-4.47,1.83c-12.21,1-24.15,3.64-36.19,5.72-9.91,1.71-20,2.5-29.85,4.47s-19.86,2.58-29.54,5.34c-2.18.62-4.61.33-6.92.46-3.87-4.84-4-11-5.66-16.53-.35-1.47-.92-2.92-.41-4.46,4.31-3.13,9.69-2.76,14.45-4.44a224.43,224.43,0,0,0,23.06-3.83,25.83,25.83,0,0,0,15.24-3.09c6.4-3.69,14-2.85,20.7-5.58a9.79,9.79,0,0,1,7.29-.35,3,3,0,0,0,2.43.18c5-3,10.77-.59,15.91-2.47a4.54,4.54,0,0,1,3.88,0c3.53,2.26,6.2.74,8-2.1,2.64-4.19,6.46-1.84,9.76-2.35,2.31,2.61,5.09,3.17,8.43,2.31,2.69-.68,5.44-1.17,8.2-1.64,8.62-.66,17.09-3,25.82-2.27,3.35,2.87,2,5.69-.56,7.89-3.29,2.8-6.65,5.4-8.34,9.57a2.54,2.54,0,0,1-3.18,1.67h0c-3.89-1-7.44,1.24-11.23,1.15a2.52,2.52,0,0,0-1.83.69c-4.69,5-10.92,3.51-16.69,4.4C348.55,224.78,345.83,226.92,342.94,227.83Z" transform="translate(-0.02 0.01)" style="fill:#4d443e"/><path d="M195.18,251.74c-1.52.94-2.89,2.19-4.91,2-6-.57-11.82,1.44-17.41,2.62-6,1.28-12.55,0-18.26,3.16-1.14.63-2.92.09-4.4.08-6-2.51-9.77-7.9-14.81-11.66-1.58-1.18-3-2.64-4.57-3.86-4.32-4.25-9.18-7.88-13.58-12-1.31-1.24-2.76-2.35-3.13-4.27-.73-3.12.61-5,3.71-5,4.1-.08,7.87-1.27,12.46.73,3.34,1.46,7,2.46,10.23,4.6a7.47,7.47,0,0,0,6.29.58c5.82-1.8,11.6-2.45,17.41.14,1.33.6,2.9.85,4-.47.23-.42.22-.76-.06-1-1.31-1.19-4.63-.66-3.78-3.59.69-2.39,3.19-1.82,5.16-1.84,4,0,7.86-1.48,11.87-.51a1.68,1.68,0,0,1,1.19,1.59c-.67,2.37-3.1,2.12-5,3.33,3.59,1.38,6.93.15,10.24,0,1.87,0,3.62,1,5.55.7,1.78,2.53,1.93,5.47,2.24,8.39.28,3.78,1.2,7.49,1,11.31C196.56,248.47,196.51,250.28,195.18,251.74Z" transform="translate(-0.02 0.01)" style="fill:#7b4a1f"/><path d="M195.18,251.74q-.41-8.55-.82-17.1c.66-6.18.68-5.82,7-6,4.94-.17,9.77-1.77,14.69-2.51,2.63-.4,5.26-.68,7.91-.86a7.56,7.56,0,0,1,7.2,3.52l4.78,16.9c-9.55,1.49-19.09,3-28.64,4.45C203.29,250.72,199.23,251.2,195.18,251.74Z" transform="translate(-0.02 0.01)" style="fill:#829ea5"/><path d="M131.41,243.75c3.73.72,5.32,4.28,8.12,6.27,3.87,2.76,7.14,6.35,10.67,9.58-7.89,1.4-15.76,2.92-23.67,4.19-5,.8-9.92,2.53-15.11,2.1-3.2,1-4.87.29-4.66-3.54.12-2.15.79-4.48-.59-6.55q-1.45-6-2.92-11.9c6.7-3,13.86-4,21.08-4.37C127.44,239.35,129,242.35,131.41,243.75Z" transform="translate(-0.02 0.01)" style="fill:#4a3f37"/><path d="M342.94,227.83c5.51-4.34,11.64-6.3,18.67-5,.4.08,1.12,0,1.25-.25,3-5.38,8.62-5,13.42-5.63,4-.56,7.32-1.08,9.33-5.2a13.43,13.43,0,0,1,6.31-5.74c2.5-1.26,1.91-3.95,2-6.23.65-1.16,2.24-.91,3-2,2.95,0,5.9,0,8.84-.09a5.21,5.21,0,0,1,5.18,3c.42,2.5-.7,4.84-.65,7.37.17,8.27-1,9.4-9.21,10.14-2.46.22-5,.07-7.16,1.54C376.94,222.87,360,225.78,342.94,227.83Z" transform="translate(-0.02 0.01)" style="fill:#3e322d"/><path d="M106.17,255.8c2.14,1.6,1.14,3.92,1.07,5.84-.13,3.18,1.1,4.49,4.18,4.25-2.09.93-3.26,2.16-3.15,4.83q1.61,37,2.93,74.06c.39,10.27-.29,20.59,1.17,30.82,0,2.64-.07,5.28-.1,7.91-1.37,1.08-.79,3.69-3.14,4-.73-4.07-.87-8.09,1.11-11.91-.66-23-1-46.1-2.16-69.11-.46-8.79-.44-17.56-.81-26.34C106.93,272,106.54,263.91,106.17,255.8Z" transform="translate(-0.02 0.01)" style="fill:#821213"/><path d="M393.85,219.79c.26-2.09,1.83-2.09,3.32-1.95,3.21.3,6-1,9-1.84,2.34-.65,2.78-1.83,2.66-3.83-.24-4,.09-7.84,2-11.43,1.57,4.21,1.27,8.93,3.79,12.92.83,1.31-1.17,2.07-1.83,3.11A149.62,149.62,0,0,1,393.85,219.79Z" transform="translate(-0.02 0.01)" style="fill:#410c06"/><path d="M354.24,85c.22-.23.49-.7.68-.67,5.2.79,7-3.64,9.94-6.39C363,83.05,361,88.2,362,93.86l-1.81-2.47c-8.48,13.48-16.75,26.89-25.33,40.1-3.08,4.75-5,10.45-10.21,13.63a16.25,16.25,0,0,0-7.33,6.8c-1.36,2.18-2.83,4.39-5.51,5.25-3.27-4-8-6.39-11.32-10.35a4.22,4.22,0,0,1,1.51-3.06c3.94-3.52,6.29-8.09,8.61-12.71,1.58-3.14,4.56-5.26,6.54-7.87,1.4-1.84-2.72-5.57-2.37-9.1,1-10.07,4.58-18.91,11.93-26l17.19-3L344,85a66.49,66.49,0,0,0,1,13.73c.38-.19.79-1.4,1.92-1.83,4.57-1.72,6.87-4.89,6.24-9.92A1.73,1.73,0,0,1,354.24,85Z" transform="translate(-0.02 0.01)" style="fill:#3b312b"/><path d="M441.81,70.29A13.08,13.08,0,0,0,440.36,67,23.48,23.48,0,0,1,441.81,70.29Z" transform="translate(-0.02 0.01)" style="fill:none"/><path d="M388,94.41c-.22,2.62-1.63,5-4.6,5.12a4.23,4.23,0,0,1-4.28-5c.29-2.64,1.52-5.33,4.74-5.43S388,91.27,388,94.41Z" transform="translate(-0.02 0.01)" style="fill:#5f5b54"/><path d="M407.87,112.43c-.71,2.62-1.95,5-5.29,4.55-2.86-.37-3.81-2.77-3.37-5.15.5-2.63,2-5.21,5.3-4.75C407.26,107.46,408.05,109.7,407.87,112.43Z" transform="translate(-0.02 0.01)" style="fill:#5e5b54"/><path d="M181.23,221.76c-4.6.39-9.09,1.92-13.8,1.12-1.08-.19-2.63-.07-2.45,1.58.14,1.27,1.31,1.09,2.36.81a2.54,2.54,0,0,1,3.45,2.47c.08,1.84-1.59,2.85-3.38,2.95a6.92,6.92,0,0,1-3.36-.55c-5.78-3-11.53-1.95-17.27-.06a5.17,5.17,0,0,1-3.81.1c-5.22-2-10-5-15.3-6.89-1-.37-11.8.5-12.43,1.33-.84,1.1.28,2.22,0,3.34-1.71.95-2.78-.23-3.82-1.25-5-4.92-10.55-9.27-15.59-14.17-4.66-4.5-9.53-8.75-14.53-12.87-1.87-1-1.9-4.37-4.93-3.91,4.14-5.28,5.81-11.9,10.2-17.23,4.86-5.89,9.65-11.4,16.64-14.66,5.84,1.78,9.88,6.36,14.79,9.58,7.58,5,14.21,11.3,22.17,15.73a6.1,6.1,0,0,1,2.35,1.48c3.1,4.32,8,6.38,12,9.51,7.6,5.91,15.59,11.33,23.26,17.18C179.33,218.46,181.59,219.17,181.23,221.76Z" transform="translate(-0.02 0.01)" style="fill:#a56e3e"/><path d="M140,189.82c-3.14,1-4.26-2-6.05-3.31-10.37-7.36-20.5-15.06-30.72-22.64.82-4.37-1-7.73-4-10.63a52.16,52.16,0,0,1-7.72-9c-4.6-7.12-4-11.6,3.7-15.22,4.83-2.27,10.58-3.6,16.14-1.08.83,1.76,1.89,2.53,3.87,1.38,1.82-1.07,3.54-2.48,5.82-2.55,3.17-1.91,6-4.16,7.25-7.83,10.47,21.85,21,43.68,31.34,65.59,1.23,2.61,2.6,4,5.54,3.49-.5,1.48-1.73,2.6-2,4.18a17.39,17.39,0,0,1-12-1.76,3.54,3.54,0,0,1-1.81-2.13c-.29-2.15-1.13-2.87-3.22-1.53S142.46,189.64,140,189.82Z" transform="translate(-0.02 0.01)" style="fill:#4a4139"/><path d="M124.16,109.86c1.06,2.33,2.11,4.66,3.17,7l-12-2.93c-1.1-1.87-3.3-.92-4.76-1.86-3.06,1.25-6.07-.3-9.13-.21-5.38.16-10.75.08-16.08,1a.76.76,0,0,1-.3-.67c0-.26.06-.38.12-.39a2.7,2.7,0,0,1,2.2-.82,291.17,291.17,0,0,0,30.53-2C120,108.81,122.21,108.61,124.16,109.86Z" transform="translate(-0.02 0.01)" style="fill:#4e4034"/><path d="M71.35,115.88c.34-11.42-.16-22.74-3.67-33.75a19.42,19.42,0,0,1-.33-4.44l1,.3a9.06,9.06,0,0,1,3.3,6.42c1.24,9.42,3.36,18.76,3,28.35a7.07,7.07,0,0,1-1.29,3.11Z" transform="translate(-0.02 0.01)" style="fill:#410c06"/><path d="M47.34,197.73c-1.1,4.86-2.51,9.66-2.11,14.75.07.88-1,1.19-1.85,1.27-.92-3.35-.51-6.64-.09-10C43.65,200.77,44.54,198.74,47.34,197.73Z" transform="translate(-0.02 0.01)" style="fill:#9f4641"/><path d="M121,126.73c-2.15,1.41-4.28,2.85-6.46,4.21-1,.66-2.14,1.71-3.44.43s-.49-2.35.21-3.47C114.45,126.63,117.48,124.57,121,126.73Z" transform="translate(-0.02 0.01)" style="fill:#5f879c"/><path d="M73.36,115.87l.12-3.18c3.79-3,7.76-3.09,11.88-.75v.86C81.16,113.08,77.4,115,73.36,115.87Z" transform="translate(-0.02 0.01)" style="fill:#483c31"/><path d="M110.56,112.05c2-.41,4.84-3,4.76,1.86C113.62,113.59,111.2,115.1,110.56,112.05Z" transform="translate(-0.02 0.01)" style="fill:#5f879c"/><path d="M274,95.7c-14,11.29-17.45,27.58-20.59,43.91-2.34,12.19-4.17,24.48-6.23,36.73a3.25,3.25,0,0,1,.62,2c-.94,3.3-4.32,4.84-5.69,7.9-.48,1.07-2.94,1.13-2.83.54,1.1-5.67-11,1.08-6.6-7.1a2.86,2.86,0,0,0-.19-3.51c-.07-6.87,2.06-13.4,3.19-20.08,2-11.6,4.76-23.06,6.65-34.69.28-1.75,1.08-3.53-.2-5.64-2.34,1.36-2.47,3.8-3,5.89-3.88,16.64-7.68,33.29-11.51,49.94-.63,2.74-1.35,5.47-2.1,8.19-1,3-.52,7.25-5.68,6.75,0,.37.7.35.51.85-1.15,1.64-2.56,1.61-4.11.64-3-6.26-2.27-13-2.31-19.59-1.48-2.44-.36-4.88.21-7.2q5.63-22.9,11.38-45.76a37.09,37.09,0,0,0,1.24-9.32c0-2.12-.3-4.34,1.21-6.18,11.16-.93,22.32-1.92,33.41-3.62C265.5,95.76,269.75,95.91,274,95.7Z" transform="translate(-0.02 0.01)" style="fill:#4f473e"/><path d="M85.36,111.94c-4-.07-8-.3-11.88.75C72.81,101,71.71,89.31,68.33,78c6.45-.1,7.78,1.39,7.06,7.88-.18,1.55-1.15,3.27,1.21,4.17s6.36.74,4.45,5.62c-.35.88,2.41,1.87,4.06,2.22,4.07.87,4.07.88,1.91,4.43,1,.94,2.19.5,3.3.61,2.23.24,4.16,1.58,4.26,3.52.09,1.67-2.3,2.1-3.91,2.39-1.44.26-3.15-.13-3.3,2.09A2.19,2.19,0,0,1,85.36,111.94Z" transform="translate(-0.02 0.01)" style="fill:#7b4a1f"/><path d="M350,200.77c-.14,1.43.17,3.68-2.21,1.34-2.21-2.17-4.1-1.21-5.24.92s-3.48,3-5,4.68c-.72.8-1.93,1.3-2.57.27-2.27-3.59-5.22-1.84-8-1.15-4.86,1.23-10.31-.88-14.73,2.66-5.92-3.14-10.91,1.39-16.24,1.73-4.6.29-8.47,2.74-12.94,2.58-1.39-1.85.21-3.05,1-4.38,4.8-8.11,10.41-15.7,15.24-23.79,1.79-1.4,1.92-4.42,4.69-4.88,1.38,3.7,5,1.82,5.1.64.18-2.52,3.21-3.94,2.07-6.71a2.45,2.45,0,0,1,.93-3.11c1.81-1.07,2,1.12,3,1.71a2.67,2.67,0,0,1,.78.6c2.88,3.46,4.59,4.68,5.18,3.72,1.61-2.61,6.78-1.6,6.22-6.7-.23-2.07,2.1-2.34,3.53-.64,2.61,3.08,5.46,4.43,9.6,3,3.5-1.2,3.32,3.32,5.57,4.28.69-2-.67-5.61,3.78-4.77a2.08,2.08,0,0,0,2.6-1.38,1.83,1.83,0,0,0,.06-.25c.18-1.41-1.32-1.16-2.09-1.63-.14-.09-.3-.14-.45-.22-1.75-.92-4-1.75-3.65-4.13.3-2,2.57-1.58,3.74-1.17,1.73.59,5.36-.55,4.19,3.64-.59,2.1,1.12,2.84,2.63,3.63,1.74.92,2.68.13,3.68-1.27.83-1.16,1.75-2.85,3.34-2.63,2,.27.37,2.73,1.66,3.72,1.73-.54,1.48-2,1.26-3.24s-1.53-3.18,1-3.32c1.62-.09,3.31.62,3.13,2.94a1.94,1.94,0,0,0,1.46,2.32,1.83,1.83,0,0,0,.47.05c0,3.32-1.09,6.59,0,10,.65,2-.33,3.77-1.93,5.11-1.68,3.49-5.22,3-8.15,3.85a33.32,33.32,0,0,1-3.44.43c-6,.76-7.33,2-8.1,7.93C351.08,198.44,351,199.78,350,200.77Z" transform="translate(-0.02 0.01)" style="fill:#5a534a"/><path d="M304,180.75c-1.39,1.64-1.58,4.22-4,5.08-3.66,4.1-8.28,3.82-13.05,2.84a1.63,1.63,0,0,1-1.15-2,1.61,1.61,0,0,1,.5-.8c6.78-7.37,13.88-14.37,23.27-18.46a1.72,1.72,0,0,1,1.36.52C309.58,172.72,306.16,176.4,304,180.75Z" transform="translate(-0.02 0.01)" style="fill:#410c06"/><path d="M72,22.09a3.58,3.58,0,0,1-2,2.84Q60.69,30,51.36,35.22c-1.29.71-2.53,1.18-3.47-.28-1-1.62-.18-2.91,1.24-3.71,6.34-3.57,12.73-7.06,19.08-10.61C70.25,19.48,71.25,20.45,72,22.09Z" transform="translate(-0.02 0.01)" style="fill:#5f879c"/><path d="M84.23,47.24C84,50.86,79.47,55.13,76,55.15S73.47,52.93,73.52,51C77.42,50.68,79.8,46.05,84.23,47.24Z" transform="translate(-0.02 0.01)" style="fill:#5f879c"/><path d="M69.79,41.91c-1.31.18-2-.16-2.43-1a2,2,0,0,1,.46-2.7c2.47-1.64,5.07-3.1,7.67-4.54,1.08-.59,1.9,0,2.48,1A1.79,1.79,0,0,1,77.88,37,34.63,34.63,0,0,1,69.79,41.91Z" transform="translate(-0.02 0.01)" style="fill:#5f879c"/><path d="M216.23,188.06l4.37-1.14c5.83-1.66,7.28-1.14,11.38,4,2.68,6.73,1.37,13.19-1.29,19.56-3.19,1.07-2.05-2-2.77-2.91-4.54,2.44-9.51,2.86-14.38,3.43-4.11.48-8.19,1.2-12.32,1.41a21.39,21.39,0,0,0-12.12,4.79c-4.18-2.69-4.77-7-5.26-11.41-.57-8.33,6-12.65,12.91-13.22,1.76-.14,3.58-.59,5.37,0C206.9,191.31,212,191.14,216.23,188.06Z" transform="translate(-0.02 0.01)" style="fill:#aab5ad"/><path d="M202.12,192.55c-1.75.37-3.49.8-5.26,1.11-7.7,1.36-10.67,4.21-12.27,11.83-2.52-1.06-4.74-1.89-7.85-.92-6.34,2-12.28-2.54-13.16-9.28-.14-1.15-.34-2.3-.41-3.46-.94-2.11.38-3.05,2-3.85L196,183.72c1.54.86,1.32,2.53,1.51,3.84C197.93,190.39,199.37,192,202.12,192.55Z" transform="translate(-0.02 0.01)" style="fill:#410c06"/><path d="M362.88,187.71l8.06-2.8a4,4,0,0,1,.21,3.75c-.57,1.59-.18,3,1.89,3.17,1,.1,2.29.49,2.37,1.46.46,5.67,4.62,4.46,8.08,4.51,4.46.06,8.91,0,13.36,0-.08,2-1.56,1.93-3,2-9.15-.21-18,2.37-27,3-4.47,0-5.72-2.67-5.47-6.63C361.57,193.28,360.88,190.27,362.88,187.71Z" transform="translate(-0.02 0.01)" style="fill:#410c06"/><path d="M398.69,159.79c-.66-.11-1.51-.3-1.28-1.1a2.26,2.26,0,0,1,2.33-1.43c.86,0,1,.73.87,1.41C400.41,159.71,399.52,159.73,398.69,159.79Z" transform="translate(-0.02 0.01)" style="fill:#661611"/><path d="M49.42,74c0,6.58,0,6.49,6.12,5,5.36-1.35,5.29,4.16,5.47,6.13a173.69,173.69,0,0,1,.21,24.78c-.15,2.67-2.12,5.24-5.94,3.06-2-1.15-4.58-2.7-6,1-2.32-.44-2-2.29-1.86-3.81a22,22,0,0,0-1-7.11c-1.32-6.21-1.84-12.38,1-18.37V77.3C47.44,75.77,47.3,74.19,49.42,74Z" transform="translate(-0.02 0.01)" style="fill:#821213"/><path d="M47.42,84.64c-1.27,6.07-1,12.23-1,18.37C43.64,96.72,43.19,90.55,47.42,84.64Z" transform="translate(-0.02 0.01)" style="fill:#821213"/><path d="M91,62.15c-.2.4-.35,1.2-.82,1.49-2.51,1.58-5.09,3.07-7.69,4.52-1.07.59-1.9,0-2.5-.9A1.68,1.68,0,0,1,80.15,65a24.06,24.06,0,0,1,8.45-5C90,59.46,90.64,60.64,91,62.15Z" transform="translate(-0.02 0.01)" style="fill:#5f879c"/><path d="M96.33,211.78c5.38,4.79,10.79,9.55,16.1,14.41a5.67,5.67,0,0,0,2.85,1.76c4,5.46,9.88,8.79,14.52,13.51.7.71,1.45,1.25,1.61,2.29-6.77-5.31-13.93-2-20.91-.74-2.42.42-4.82.68-7.25.88-3.16-5.88-6.33-11.76-10.93-16.71A4.89,4.89,0,0,1,91.26,224C88,216.36,88.86,214.26,96.33,211.78Z" transform="translate(-0.02 0.01)" style="fill:#362b25"/><path d="M110.24,375.59c.05,4,.69,8.08-1.11,11.91l-4.74.13c-4.49-1.15-6.1-5.76-9.66-8a4.56,4.56,0,0,1-1.79-2.18A5,5,0,0,1,93,376c.37-1.95-1.27-2.95-2.08-4.33a19.31,19.31,0,0,1-1.53-18A6.11,6.11,0,0,1,94.53,359a18.55,18.55,0,0,0,6.9,11.23C104,372.27,107.65,373.18,110.24,375.59Z" transform="translate(-0.02 0.01)" style="fill:#c93634"/><path d="M71.39,259.34a45.38,45.38,0,0,0,0-5.47c-.57-4.61,1.52-6.21,5.94-6.22,7,0,7.26.38,6.77,7.36-.22,3.06-1.8,6.28.63,9.56,1,1.32-.55,4.2-2.49,4.79a40.08,40.08,0,0,1-8.78,1.25c-1.88.14-2-1.43-2-2.79v-8.48Z" transform="translate(-0.02 0.01)" style="fill:#593c34"/><path d="M70.27,351.84l-6.88-6.19a10.44,10.44,0,0,0-1.1-1c-4.55-3-6.42-7.22-6.2-12.59.1-2.26.41-4.62-.85-6.74a2.56,2.56,0,0,1-.2-1.47c.5-1,1.14-1.67,2.37-1.19,3.34,2.36,5.29,5.78,6.67,9.45,2,5.21,8.57,7.19,9,13.42.08,1,1.55.64,2.58.53,2.77-.28,5.56-.32,8.35-.41,1.51-.06,3.08-.1,3.28,2-1.62,1.52-3.67,1.23-5.6,1.26-1.73,0-3.42.28-4.34,1.81C75.4,354.11,72.89,353.1,70.27,351.84Z" transform="translate(-0.02 0.01)" style="fill:#c93634"/><path d="M55.48,323.74v.86c1.11,4.69,2.51,9.41-1.24,13.66-2.2,1.52-4.6-.66-6.84.36l-3.77-.24c-.09-1.23-.17-2.47-.26-3.7,1.41-5.14-2.29-9.18-3-13.86,2.17-.82.24,2.55,2.37,1.85,1.27-.47.24-2,.72-3,6-2.15,9.43-1.62,11.9,1.8A1.81,1.81,0,0,1,55.48,323.74Z" transform="translate(-0.02 0.01)" style="fill:#47342a"/><path d="M39.45,241.78c-.22-4.3-.06-8.6-.9-12.87-.32-1.64-.81-3.67.86-5.14,1.5-.88,3.22-.55,4.82-.77,5.07-.69,6,.25,6.28,5.36A33.75,33.75,0,0,0,52,235.6c.56,2.08.83,4.23-.57,6.18h0A16.51,16.51,0,0,1,39.45,241.78Z" transform="translate(-0.02 0.01)" style="fill:#4d3a33"/><path d="M96.33,211.78c-4.11,3.06-8.19,6.13-5.07,12.21-3.21-2.08-3.38-5.84-4.76-8.88-2.24-5-4.33-10-5.16-15.44.77,0,1.88-.25,2.24.15C87.52,204.14,92.73,207.1,96.33,211.78Z" transform="translate(-0.02 0.01)" style="fill:#410c06"/><path d="M51.43,241.78c.13-5.35-3.09-10.21-2.14-15.73.35-2-1.42-2.25-3-2.26H39.41a13.63,13.63,0,0,1,7-2c4-.13,5.46,2.17,5.71,6.08.21,3.31,1.56,6.58,1.25,10C53.23,239.46,53.94,241.42,51.43,241.78Z" transform="translate(-0.02 0.01)" style="fill:#821213"/><path d="M89.37,353.64c0,7.39-1.11,15,5.54,20.71,1,.89,0,2.08-1.41,2.26a11.91,11.91,0,0,1-7.37-8.08c-.26-5.85-.66-11.7.23-17.53a3.14,3.14,0,0,1,1-1.43C90,350,89.17,352.06,89.37,353.64Z" transform="translate(-0.02 0.01)" style="fill:#661611"/><path d="M87.41,349.57l-.15,1.16c-6.13-1.32-9.29,2.44-11.94,7-2.35-1.41-3.34-4-5-5.92,3,.32,5-.66,7.21-3,2.56-2.69,6.53-.82,9.86-1.2C87.36,348.31,87.39,348.94,87.41,349.57Z" transform="translate(-0.02 0.01)" style="fill:#821213"/><path d="M55.48,323.74c-2.51-5.81-7.66-3.76-12-4,2.1-3.7,6-2.66,9-2.66a5.22,5.22,0,0,1,5,5.44c0,.06,0,.13,0,.19Z" transform="translate(-0.02 0.01)" style="fill:#752720"/><path d="M39.45,241.78h12C48.63,244.64,41.9,244.64,39.45,241.78Z" transform="translate(-0.02 0.01)" style="fill:#752a28"/><path d="M75.32,357.76c.88-6.91,6.8-10.4,11.94-7q0,9.5.07,19c-5.63,2.89-8.37,2.86-11.13-.12C74.6,365.75,75.73,361.7,75.32,357.76Z" transform="translate(-0.02 0.01)" style="fill:#46352c"/><path d="M230,210.74c.9-6.53,3.51-13,.94-19.69-1.67-3.66-1.23-7.58-1.36-11.43.52-1.86,1.9-2.6,3.69-2.78.81.25,2.85-.54,1.68,1.49-.87,1.52-2.36,2.68-2.55,4.91.87-.05,1.86.2,2.36-.18,2.64-2,4.18-1.84,4.4,1.83,0,.63.16,1.49,1,1.4.54,0,1.46-.59,1.48-1,.2-3.52,3.7-4.23,5.34-6.5,1.75,1.65.66,3.27,0,5-1.71,4.78-.57,6.45,4.37,6.66,2.13.09,4.32-.26,6.32.86,2,2.21.37,4.07-.74,5.79A85.07,85.07,0,0,0,251,208a87.22,87.22,0,0,0-3.87,8.6c-.7,1.6-1,3.62-3.12,4.15-2.26,2.85-5.84,1.87-8.71,3a29.85,29.85,0,0,1-4.78,1C227.36,220.19,228,215.49,230,210.74Z" transform="translate(-0.02 0.01)" style="fill:#3f3632"/><path d="M230,210.74q.23,7,.46,14l.72,4c-9.08-4.81-17.85-.21-26.73.92-1.12.14-2.61,1.23-3.21.83-5.51-3.75-5.7,1-6.89,4.14-.48-2.73-.57-5.56-2-8-3.34-2.48-3.53-6-3.35-9.73,2.15-3.39,5.1-4.87,9.25-5.24,8-.73,15.84-2.34,23.8-3.26,3.31-.38,5.72-1.11,5.41-5.64C230.54,205.26,227.8,208.74,230,210.74Z" transform="translate(-0.02 0.01)" style="fill:#91a19f"/><path d="M244,220.75c2.32-4.19,3-9.17,6.12-13,1.87-2.2,3.28-4.21,7-4.67,2.3-.28,4.64-4.08,7.58-5.74,5.38-3,11.13-5.43,15.82-9.7,2.41-2.2,3.77-1.15,4.06,2.67-4.37,8.6-10.08,16.42-14.54,25a3,3,0,0,1-1.88,1.53c-5.38,3.5-11.79,2.42-17.64,3.86C248.45,221.19,246.12,223,244,220.75Z" transform="translate(-0.02 0.01)" style="fill:#6f94a5"/><path d="M268.1,216.84c4.55-9.46,10.23-18.23,16.11-26.9.29-1.1.73-2.06,2.07-2.15,4.68.08,9.41.45,13.73-2-4.1,9-10.55,16.49-15.49,25-.58,1-1.48,1.76-1.47,3C280.1,217,270.67,218.93,268.1,216.84Z" transform="translate(-0.02 0.01)" style="fill:#342c27"/><path d="M362.88,187.71a70.8,70.8,0,0,1-.05,8.74c-.41,3.43.93,5.34,4,6.34-3.2.64-6.39,1.33-9.6,1.9-3.41.6-6.53.49-7.3-3.92v-3.44c-.06-6.5,2-8.82,8.49-9.43C359.92,187.75,361.4,187.77,362.88,187.71Z" transform="translate(-0.02 0.01)" style="fill:#2a1e1a"/><path d="M189,216.87l3.35,9.73c-1.23,3.56-2.73,0-4.09.15a7.13,7.13,0,0,1-6-4l-1-1c-8.77-7.59-18.53-13.87-27.76-20.86-3.55-2.69-7.13-5.34-10.8-7.86-1-.69-.79-1.21-.44-2a13.19,13.19,0,0,1,7.9-3.56c2.13,2.32,5.14,4.67,7.78,3.85,2.27-.7,3.54.46,5.26.48a1.91,1.91,0,0,1,2,1.76c1.3,8.45,6,13.19,14,8.57,3.28-1.9,3.82,1.84,5.39,3.33A29.77,29.77,0,0,0,189,216.87Z" transform="translate(-0.02 0.01)" style="fill:#43372f"/><path d="M182.26,222.71l6,4c-3.8,2.06-7.83,1.35-11.83,1-.86-.07-1.78-.24-1.71-1.28.06-.86.83-1.37,1.71-1.55C178.47,224.48,180.63,224.29,182.26,222.71Z" transform="translate(-0.02 0.01)" style="fill:#7b4a1f"/><path d="M286.28,187.79l-2.07,2.15c-.49-1.52-1.14-3.31-3-1.49-5.55,5.53-12.86,8-19.47,11.72-1.45.82-2.31,2.71-3.43,4.12-1,1.24-1.73,3.09-3.48.58-1.07-1.53-1.35-.14-1.85.71-.63,1.11-.73,3.13-2.93,2.2.94-4.23,3.61-7.57,5.78-11.15.92-1.52,2.12-2.91,2.08-4.83.17-.14.35-.27.51-.41,3.86-5.25,8-10.33,11.21-16-.12-.61-.44-1.15-.6-1.74,7.3-2.52,9.68-9.42,13.39-15.13a13.26,13.26,0,0,0,.75-1.83c4.81-10.6,6.6-11.61,17.77-10.11,4.06,2.92,8.78,5.15,10.81,10.22-.49,3.37-.47,6.87-2.89,9.67-1,1.14.28,1.21.88,1.55C301,173.44,292.8,179.64,286.28,187.79Z" transform="translate(-0.02 0.01)" style="fill:#829ea5"/><path d="M150.13,187.5c-2.5,1.49-4.67,3.68-7.89,3.56-.91-.12-1.92-.05-2.22-1.25,1.79-2.49,4.65-3.49,7.14-4.94C150.16,183.12,150.42,185.15,150.13,187.5Z" transform="translate(-0.02 0.01)" style="fill:#5f879c"/><path d="M112.07,163.77a1.81,1.81,0,0,1-1.76-1.47,2.58,2.58,0,0,1,1.51-2.86c4.53-2.73,9.1-5.42,13.65-8.12,1.56-.93,3.15-1.81,4.7-2.76a1.73,1.73,0,0,1,2.44.16.9.9,0,0,1,.15.19,1.68,1.68,0,0,1-.33,2.62c-6.59,4.11-13.24,8.12-19.87,12.16A1.62,1.62,0,0,1,112.07,163.77Z" transform="translate(-0.02 0.01)" style="fill:#5f879c"/><path d="M130.25,168.94c-.68-.44-1.36-.67-1.66-1.14a1.91,1.91,0,0,1,.39-2.68c2.44-1.66,5-3.16,7.54-4.69.89-.53,1.55-.11,2.06.65a1.76,1.76,0,0,1-.1,2.28C136.24,165.89,133,166.86,130.25,168.94Z" transform="translate(-0.02 0.01)" style="fill:#5f879c"/><path d="M124.84,135.88c2,.09,2.66.94,2.31,2.59a1.33,1.33,0,0,1-.5.82c-2.81,1.86-5.23,4.56-8.92,4.66a1.32,1.32,0,0,1-1.25-1.37,1.47,1.47,0,0,1,.11-.46C118.23,138.46,122.25,138,124.84,135.88Z" transform="translate(-0.02 0.01)" style="fill:#5f879c"/><path d="M144.46,174.07c0,2.13-7.77,7.22-9.34,6.24a1.78,1.78,0,0,1-.39-3c2.1-2.18,4.82-3.5,7.49-4.79C143.68,171.86,144.31,172.87,144.46,174.07Z" transform="translate(-0.02 0.01)" style="fill:#5f879c"/><path d="M269.06,173.66l1.87.93c-4.1,5.82-8.25,11.61-12.57,17.27l-.42-.06c-2.29,0-4.59.2-6.86,0-2-.17-5.07,1.25-5.56-1.35-.46-2.42-2.77-5.59.77-7.94,1.22-.81.73-2.39.7-3.68,0-.83.09-1.66.14-2.49Z" transform="translate(-0.02 0.01)" style="fill:#410c06"/><path d="M224.39,179.45a8.89,8.89,0,0,0,5.84-.47c1.77,3.93.7,8,.72,12.07a11.32,11.32,0,0,0-10.35-4.13c-.52-.19-1.29,0-1.37-.86C224.33,186.5,223,181.9,224.39,179.45Z" transform="translate(-0.02 0.01)" style="fill:#410c06"/><path d="M63.39,344.71c-5.46.67-6.83-4.42-9.92-7.06,3.08-1.72,1.67-4.66,1.9-7.13.18-2,.08-3.94.1-5.92,2,.38,2,1.95,1.9,3.44C56.86,334.52,57.57,340.53,63.39,344.71Z" transform="translate(-0.02 0.01)" style="fill:#661611"/><path d="M236.73,188.44c.05,1.27-1,1.54-1.84,1.88s-1.53-.14-1.65-1.09,0-2,1.25-2.22A2,2,0,0,1,236.73,188.44Z" transform="translate(-0.02 0.01)" style="fill:#4f473e"/><path d="M258.36,191.86c3.05-6.58,7.54-12.12,12.57-17.27-.86,4.75-4.58,7.75-7.23,11.32C262.15,188,261.78,191.4,258.36,191.86Z" transform="translate(-0.02 0.01)" style="fill:#91a19f"/></svg>