<svg id="Layer_1" data-name="Layer 1" xmlns="http://www.w3.org/2000/svg" viewBox="0 0 644.74 644.74"><title>wrench</title><path d="M635.47,114.1a12,12,0,0,0-20.12-5.51L547.74,193l-89-9-4-87,81.42-67.6A12,12,0,0,0,530.5,9.24,143.92,143.92,0,0,0,393.92,47.17c-39.64,39.64-50.55,97.1-34.05,147.2L23.74,530.5a64,64,0,0,0,90.5,90.5l336-335.95c50.12,16.71,107.47,5.68,147.37-34.22A143.94,143.94,0,0,0,635.47,114.1ZM69,599.74a24,24,0,1,1,24-24A24,24,0,0,1,69,599.74Z" style="fill:#4c4d4d;stroke:#000;stroke-miterlimit:10;stroke-width:10px"/></svg>